<svg width="24" height="24" viewBox="0 0 24 24" fill="none" xmlns="http://www.w3.org/2000/svg">
<rect width="24" height="24" rx="4" fill="white"/>
<path d="M7.99472 16.9829C8.20311 16.9472 8.41241 16.8565 8.53961 16.6922L11.8606 12.4076C12.0465 12.1684 12.0465 11.8442 11.8606 11.605L8.53961 7.32033C8.28522 6.99184 7.75353 6.90045 7.37204 7.11896C6.99054 7.33819 6.88418 7.79522 7.13849 8.123L10.1481 12.0063L7.13849 15.8896C6.88419 16.2173 6.99054 16.6744 7.37204 16.8936C7.56283 17.0029 7.78633 17.0186 7.99472 16.9829Z" fill="#292929"/>
<path d="M12.9947 16.9829C13.2031 16.9472 13.4124 16.8565 13.5396 16.6922L16.8606 12.4076C17.0465 12.1684 17.0465 11.8442 16.8606 11.605L13.5396 7.32033C13.2852 6.99184 12.7535 6.90045 12.372 7.11896C11.9905 7.33819 11.8842 7.79522 12.1385 8.123L15.1481 12.0063L12.1385 15.8896C11.8842 16.2173 11.9905 16.6744 12.372 16.8936C12.5628 17.0029 12.7863 17.0186 12.9947 16.9829Z" fill="#292929"/>
</svg>
