<svg width="24" height="24" viewBox="0 0 24 24" fill="none" xmlns="http://www.w3.org/2000/svg">
<g id="bell-fill">
<path id="Vector" d="M12.0001 4C9.23741 4 7.33343 5.9584 7.33343 8.8C7.33343 9.188 7.33343 9.6 7.33343 10.4C7.33343 11.2 7.20743 11.632 6.77421 12C6.72521 12.0416 6.51988 12.2232 6.45843 12.2752C5.47455 13.112 4.99156 13.896 5.00011 15.2C5.00633 16.0624 5.69466 16.8088 6.55565 16.8H9.81529C9.81529 16.8 9.66674 17.2888 9.66674 17.6C9.66674 18.9256 10.7113 20 12.0001 20C13.2888 20 14.3334 18.9256 14.3334 17.6C14.3334 17.2888 14.191 16.8 14.191 16.8H17.4445C18.3031 16.8024 18.9992 16.0672 19 15.2C19.0016 13.9056 18.5131 13.108 17.5417 12.2752C17.4779 12.22 17.2523 12.0432 17.2018 12C16.7779 11.6368 16.6667 11.2 16.6667 10.4C16.6667 9.4 16.6667 8.8 16.6667 8.8C16.6667 5.9584 14.7627 4 12.0001 4ZM12.0001 16.8C12.4294 16.8 12.7778 17.1584 12.7778 17.6C12.7778 18.0416 12.4294 18.4 12.0001 18.4C11.5707 18.4 11.2223 18.0416 11.2223 17.6C11.2223 17.1584 11.5707 16.8 12.0001 16.8Z" fill="#F0F0E2"/>
</g>
</svg>
