<svg width="24" height="24" viewBox="0 0 24 24" fill="none" xmlns="http://www.w3.org/2000/svg">
<g id="Property 1=On">
<path id="Vector" d="M11.969 3.00038C11.254 3.00838 10.562 3.15239 10.031 3.40639C9.1114 3.84739 4 6.40639 4 6.40639C5.7274 7.27039 10.24 9.5264 10.812 9.8124C11.435 10.1234 12.565 10.1244 13.188 9.8124L20.062 6.43837C20.063 6.43837 15.468 4.10839 14.031 3.40639C13.423 3.10939 12.683 2.99238 11.969 3.00038ZM3 8.00039V14.9384C3.0001 16.1474 3.8195 17.4604 4.9062 18.0004L11 21.0004V11.9064C10.723 11.8684 10.215 11.7164 9.9062 11.5624L3.5625 8.40639C3.1923 8.22239 3 8.00039 3 8.00039ZM21 8.00039C21 8.00039 20.808 8.22239 20.438 8.40639L14.094 11.5624C13.785 11.7164 13.277 11.8684 13 11.9064V21.0004L19.094 18.0004C20.18 17.4604 21 16.1474 21 14.9384V8.00039Z" fill="#F0F0E2"/>
</g>
</svg>
