<svg width="24" height="24" viewBox="0 0 24 24" fill="none" xmlns="http://www.w3.org/2000/svg">
<g id="calendar-fill">
<path id="Vector" d="M8.88889 5C8.45956 5 8.11111 5.33011 8.11111 5.73684C6.393 5.73684 5 7.05653 5 8.68421V9.46675L19 9.42105V8.68421C19 7.05653 17.607 5.73684 15.8889 5.73684C15.8889 5.33011 15.5404 5 15.1111 5C14.6818 5 14.3333 5.33011 14.3333 5.73684H9.66667C9.66667 5.33011 9.31822 5 8.88889 5ZM5 10.8947V16.0526C5 17.6803 6.393 19 8.11111 19H15.8889C17.607 19 19 17.6803 19 16.0526V10.8947H5Z" fill="#292929"/>
</g>
</svg>
