<svg width="24" height="24" viewBox="0 0 24 24" fill="none" xmlns="http://www.w3.org/2000/svg">
<g id="close">
<path id="Union" fill-rule="evenodd" clip-rule="evenodd" d="M7.75736 7.75729C7.42262 8.09203 7.42262 8.63474 7.75736 8.96947L10.7877 11.9999L7.75722 15.0304C7.42249 15.3651 7.42249 15.9078 7.75722 16.2426C8.09196 16.5773 8.63467 16.5773 8.9694 16.2426L11.9999 13.212L15.0305 16.2426C15.3652 16.5773 15.9079 16.5773 16.2426 16.2426C16.5774 15.9078 16.5774 15.3651 16.2426 15.0304L13.2121 11.9999L16.2425 8.96947C16.5772 8.63474 16.5772 8.09203 16.2425 7.75729C15.9078 7.42256 15.3651 7.42256 15.0303 7.75729L11.9999 10.7877L8.96954 7.75729C8.63481 7.42256 8.09209 7.42256 7.75736 7.75729Z" fill="#F0F0E2"/>
</g>
</svg>
