<svg width="24" height="24" viewBox="0 0 24 24" fill="none" xmlns="http://www.w3.org/2000/svg">
<g id="chat4-fill">
<path id="Vector" d="M12 4C7.5816 4 4 7.5816 4 12C4 13.0176 4.2096 14.0488 4.5752 14.9752L5.2 16.2496C5.596 17.0728 5.4568 17.8488 4.9248 18.8C4.6312 19.3264 4.9976 19.9608 5.6 19.9752C6.4136 19.9936 7.7152 19.6592 8.7504 19.2752C9.7048 19.716 10.9344 20 12 20C16.4184 20 20 16.4184 20 12C20 7.5816 16.4184 4 12 4ZM8.8 11.2C9.2416 11.2 9.6 11.5584 9.6 12C9.6 12.4416 9.2416 12.8 8.8 12.8C8.3584 12.8 8 12.4416 8 12C8 11.5584 8.3584 11.2 8.8 11.2ZM12 11.2C12.4416 11.2 12.8 11.5584 12.8 12C12.8 12.4416 12.4416 12.8 12 12.8C11.5584 12.8 11.2 12.4416 11.2 12C11.2 11.5584 11.5584 11.2 12 11.2ZM15.2 11.2C15.6416 11.2 16 11.5584 16 12C16 12.4416 15.6416 12.8 15.2 12.8C14.7584 12.8 14.4 12.4416 14.4 12C14.4 11.5584 14.7584 11.2 15.2 11.2Z" fill="#E5E5E5"/>
</g>
</svg>
