<svg width="24" height="24" viewBox="0 0 24 24" fill="none" xmlns="http://www.w3.org/2000/svg">
<g id="Edit_fill">
<path id="Subtract" d="M12.199 7.93136L12.1519 7.97853L11.5395 8.59088L6.71483 13.4156L7.24516 13.9459L6.71483 13.4156C6.69745 13.433 6.68017 13.4502 6.66299 13.4673C6.41558 13.7141 6.19006 13.9391 6.03804 14.2231L6.6993 14.577L6.03804 14.2231C5.88602 14.5071 5.82395 14.8196 5.75586 15.1623C5.75113 15.1861 5.74637 15.2101 5.74155 15.2342L5.3094 17.3949C5.30794 17.4023 5.30638 17.41 5.30476 17.418C5.2859 17.5115 5.25785 17.6507 5.25155 17.7752C5.24396 17.9252 5.25601 18.2343 5.51087 18.4891L6.0412 17.9588L5.51088 18.4891C5.76574 18.744 6.07481 18.756 6.22482 18.7485C6.34934 18.7422 6.48848 18.7141 6.58198 18.6952C6.59004 18.6936 6.59775 18.6921 6.60509 18.6906L8.76584 18.2584C8.78993 18.2536 8.81387 18.2489 8.83767 18.2441C9.18042 18.176 9.49285 18.114 9.7769 17.962C10.061 17.8099 10.2859 17.5844 10.5327 17.337C10.5498 17.3198 10.5671 17.3025 10.5844 17.2852L15.4224 12.4472L16.0422 11.8274L16.0884 11.7812L16.4464 11.4232L17.7076 10.162C17.7314 10.1382 17.7551 10.1146 17.7786 10.0912C18.0901 9.78054 18.3672 9.50427 18.526 9.1838C18.8247 8.58103 18.8247 7.87334 18.526 7.27057C18.3672 6.9501 18.0901 6.67383 17.7786 6.36319C17.7551 6.3398 17.7314 6.31621 17.7076 6.29239C17.6838 6.26857 17.6602 6.24491 17.6368 6.22145C17.3262 5.90991 17.0499 5.63283 16.7294 5.47402C16.1267 5.17533 15.419 5.17533 14.8162 5.47402C14.4957 5.63283 14.2195 5.90991 13.9088 6.22146C13.8854 6.24492 13.8618 6.26857 13.838 6.29239L12.5609 7.56951L12.199 7.93136Z" stroke="#292929" stroke-width="1.5"/>
</g>
</svg>
