<svg width="15" height="14" viewBox="0 0 15 14" fill="none" xmlns="http://www.w3.org/2000/svg">
<g id="Social Icons">
<path id="Vector" d="M5.16638 14C6.45439 14 7.49975 12.9546 7.49975 11.6666V9.33325H5.16638C3.87837 9.33325 2.83301 10.3786 2.83301 11.6666C2.83301 12.9546 3.87837 14 5.16638 14Z" fill="#0ACF83"/>
<path id="Vector_2" d="M2.83301 6.99998C2.83301 5.71198 3.87837 4.66663 5.16638 4.66663H7.49975V9.33327H5.16638C3.87837 9.33333 2.83301 8.28798 2.83301 6.99998Z" fill="#A259FF"/>
<path id="Vector_3" d="M2.83301 2.33335C2.83301 1.04535 3.87837 0 5.16638 0H7.49975V4.66665H5.16638C3.87837 4.66665 2.83301 3.62135 2.83301 2.33335Z" fill="#F24E1E"/>
<path id="Vector_4" d="M7.5 0H9.83337C11.1214 0 12.1667 1.04535 12.1667 2.33335C12.1667 3.62135 11.1214 4.66665 9.83337 4.66665H7.5V0Z" fill="#FF7262"/>
<path id="Vector_5" d="M12.1667 6.99998C12.1667 8.28798 11.1214 9.33333 9.83337 9.33333C8.54536 9.33333 7.5 8.28798 7.5 6.99998C7.5 5.71198 8.54536 4.66663 9.83337 4.66663C11.1214 4.66663 12.1667 5.71198 12.1667 6.99998Z" fill="#1ABCFE"/>
</g>
</svg>
