<svg width="24" height="24" viewBox="0 0 24 24" fill="none" xmlns="http://www.w3.org/2000/svg">
<g id="Property 1=Default">
<path id="Vector" d="M5.9983 2.99072C4.34129 2.99072 2.99829 4.33382 2.99829 5.99072V7.99072V16.9907C2.99829 19.1997 4.78929 20.9907 6.9983 20.9907H16.9983C19.2073 20.9907 20.9983 19.1997 20.9983 16.9907V7.99072C20.9983 7.43842 20.5503 6.99072 19.9983 6.99072C19.9983 6.99072 17.0953 6.99072 14.9983 6.99072C14.2433 6.99072 14.0003 6.74582 13.4043 5.55322C12.5013 3.74582 11.7433 2.99072 9.9983 2.99072H5.9983ZM5.9983 4.99072H9.9983C10.7533 4.99072 10.9963 5.23562 11.5923 6.42822C11.7223 6.68932 11.7723 6.77432 11.9003 6.99242C8.45431 6.99242 5.9833 6.99072 4.99829 6.99072V5.99072C4.99829 5.43842 5.4463 4.99072 5.9983 4.99072Z" fill="white"/>
</g>
</svg>
