<svg width="24" height="24" viewBox="0 0 24 24" fill="none" xmlns="http://www.w3.org/2000/svg">
<g id="folder">
<path id="Vector" d="M5.99829 2.99072C4.34129 2.99072 2.99829 4.33382 2.99829 5.99072V7.99072V16.9907C2.99829 19.1997 4.78929 20.9907 6.99829 20.9907H16.9983C19.2073 20.9907 20.9983 19.1997 20.9983 16.9907V7.99072C20.9983 7.43842 20.5503 6.99072 19.9983 6.99072H14.9983C14.2433 6.99072 14.0003 6.74582 13.4043 5.55322C12.5013 3.74582 11.7433 2.99072 9.99829 2.99072H5.99829ZM5.99829 4.99072H9.99829C10.7533 4.99072 10.9963 5.23562 11.5923 6.42822C11.7223 6.68932 11.7663 6.76342 11.8943 6.98142L7.96729 6.99072C7.41429 6.99072 6.96729 7.43842 6.96729 7.99072C6.96729 8.54302 7.41429 8.99072 7.96729 8.99072H14.9983H18.9983V16.9907C18.9983 18.0957 18.1033 18.9907 16.9983 18.9907H6.99829C5.89329 18.9907 4.99829 18.0957 4.99829 16.9907V7.99072V5.99072C4.99829 5.43842 5.44629 4.99072 5.99829 4.99072Z" fill="white"/>
</g>
</svg>
