<svg width="15" height="14" viewBox="0 0 15 14" fill="none" xmlns="http://www.w3.org/2000/svg">
<g id="Github" clip-path="url(#clip0_728_2543)">
<g id="Group">
<path id="Vector" fill-rule="evenodd" clip-rule="evenodd" d="M7.49787 0.349976C5.84644 0.350832 4.24916 0.935737 2.99164 2.0001C1.73412 3.06447 0.898365 4.53888 0.633815 6.15971C0.369264 7.78054 0.693166 9.44209 1.54761 10.8473C2.40205 12.2524 3.73132 13.3096 5.29771 13.8297C5.64329 13.8938 5.77345 13.6797 5.77345 13.4975C5.77345 13.3154 5.76654 12.7874 5.76424 12.2102C3.82903 12.6282 3.4201 11.3935 3.4201 11.3935C3.10448 10.5918 2.64832 10.381 2.64832 10.381C2.01707 9.95266 2.69555 9.96067 2.69555 9.96067C3.39476 10.0099 3.76222 10.6742 3.76222 10.6742C4.38195 11.7314 5.38987 11.4256 5.78612 11.2469C5.84833 10.7991 6.02918 10.4944 6.22846 10.3215C4.6826 10.1474 3.0584 9.55407 3.0584 6.90371C3.04882 6.21636 3.30534 5.55164 3.77489 5.04709C3.70347 4.87299 3.46502 4.16974 3.84285 3.21452C3.84285 3.21452 4.42687 3.02897 5.75618 3.92349C6.89637 3.61346 8.09936 3.61346 9.23955 3.92349C10.5677 3.02897 11.1506 3.21452 11.1506 3.21452C11.5295 4.16745 11.2911 4.8707 11.2197 5.04709C11.6907 5.55172 11.9478 6.2176 11.9373 6.906C11.9373 9.56209 10.3097 10.1474 8.76151 10.318C9.01032 10.5334 9.23264 10.9537 9.23264 11.5997C9.23264 12.5251 9.22458 13.2696 9.22458 13.4975C9.22458 13.6819 9.35013 13.8973 9.70262 13.8297C11.2692 13.3095 12.5986 12.2522 13.453 10.8468C14.3075 9.44137 14.6312 7.77957 14.3663 6.15859C14.1015 4.5376 13.2653 3.06317 12.0074 1.99899C10.7494 0.934808 9.15179 0.350289 7.50016 0.349976H7.49787Z" fill="#5F5F5F"/>
<path id="Vector_2" d="M3.17565 10.2813C3.16068 10.3157 3.10539 10.326 3.06046 10.302C3.01554 10.2779 2.98213 10.2332 2.99826 10.1977C3.01439 10.1622 3.06853 10.1531 3.11345 10.1771C3.15838 10.2012 3.19293 10.247 3.17565 10.2813Z" fill="#5F5F5F"/>
<path id="Vector_3" d="M3.45782 10.594C3.43397 10.606 3.40667 10.6093 3.38062 10.6035C3.35456 10.5976 3.33136 10.5829 3.31499 10.562C3.27006 10.5139 3.26084 10.4474 3.2954 10.4176C3.32996 10.3879 3.39216 10.4016 3.43709 10.4497C3.48201 10.4978 3.49238 10.5643 3.45782 10.594Z" fill="#5F5F5F"/>
<path id="Vector_4" d="M3.73178 10.9914C3.68916 11.0212 3.61658 10.9914 3.57627 10.9319C3.56512 10.9212 3.55625 10.9084 3.5502 10.8942C3.54414 10.88 3.54102 10.8648 3.54102 10.8494C3.54102 10.834 3.54414 10.8188 3.5502 10.8046C3.55625 10.7904 3.56512 10.7776 3.57627 10.7669C3.61889 10.7383 3.69146 10.7669 3.73178 10.8254C3.7721 10.8838 3.77325 10.9617 3.73178 10.9914Z" fill="#5F5F5F"/>
<path id="Vector_5" d="M4.10379 11.3764C4.06578 11.4187 3.9886 11.4073 3.92525 11.35C3.86189 11.2927 3.84691 11.2149 3.88493 11.1736C3.92294 11.1324 4.00012 11.1439 4.06578 11.2C4.13144 11.2561 4.14411 11.3351 4.10379 11.3764Z" fill="#5F5F5F"/>
<path id="Vector_6" d="M4.62569 11.6008C4.60841 11.6546 4.53008 11.6787 4.45175 11.6558C4.37342 11.6329 4.32159 11.5687 4.33656 11.5138C4.35154 11.4588 4.43102 11.4336 4.5105 11.4588C4.58998 11.484 4.64067 11.5447 4.62569 11.6008Z" fill="black"/>
<path id="Vector_7" d="M5.19483 11.6398C5.19483 11.6959 5.13032 11.744 5.04738 11.7451C4.96445 11.7463 4.89648 11.7005 4.89648 11.6443C4.89648 11.5882 4.96099 11.5401 5.04393 11.539C5.12686 11.5378 5.19483 11.5825 5.19483 11.6398Z" fill="black"/>
<path id="Vector_8" d="M5.72494 11.5516C5.73531 11.6077 5.67771 11.6661 5.59478 11.6799C5.51184 11.6936 5.43927 11.6604 5.4289 11.6054C5.41854 11.5505 5.47843 11.4909 5.55907 11.476C5.6397 11.4611 5.71458 11.4955 5.72494 11.5516Z" fill="black"/>
</g>
</g>
<defs>
<clipPath id="clip0_728_2543">
<rect width="14" height="14" fill="white" transform="translate(0.5)"/>
</clipPath>
</defs>
</svg>
