<svg width="24" height="24" viewBox="0 0 24 24" fill="none" xmlns="http://www.w3.org/2000/svg">
<g id="info-circle-fill">
<path id="Vector" d="M11.999 2C6.47602 2 1.99902 6.477 1.99902 12C1.99902 17.523 6.47602 22 11.999 22C17.522 22 21.999 17.523 21.999 12C21.999 6.477 17.522 2 11.999 2ZM11.999 7C12.551 7 12.999 7.448 12.999 8C12.999 8.552 12.551 9 11.999 9C11.447 9 10.999 8.552 10.999 8C10.999 7.448 11.447 7 11.999 7ZM10.999 10C11.161 10 11.873 10 11.999 10C12.63 10 13.092 10.569 12.968 11.188L12.218 15H12.999C13.551 15 13.999 15.448 13.999 16C13.999 16.552 13.551 17 12.999 17H11.999C10.816 17 9.98602 15.973 10.218 14.812L10.811 11.938C10.358 11.842 9.99902 11.482 9.99902 11C9.99902 10.448 10.447 10 10.999 10Z" fill="#F0F0E2"/>
</g>
</svg>
