<svg width="369" height="439" viewBox="0 0 369 439" fill="none" xmlns="http://www.w3.org/2000/svg">
<g clip-path="url(#clip0_4001_1903)">
<g clip-path="url(#clip1_4001_1903)">
<path d="M110.19 291.352C165.151 346.179 220.707 401.546 276.533 457.237C236.456 490.64 190.128 510.445 136.899 516.732C132.38 448.468 108.106 388.352 63.8887 336.843C79.5569 321.436 94.9275 306.354 110.163 291.379L110.19 291.352Z" fill="#F3FF00"/>
<path d="M82.9117 1.29492C87.4579 69.8292 111.732 129.729 156.03 181.346C140.281 196.698 124.721 211.835 109.54 226.594C54.7413 171.956 -0.787742 116.589 -56.7227 60.8172C-16.7266 27.3595 29.6287 7.63569 82.9117 1.29492Z" fill="#F3FF00"/>
<path d="M142.229 258.838C157.113 243.998 172.348 228.78 187.962 213.185C239.432 257.111 299.697 281.395 368.323 285.928C362.126 338.894 342.21 385.087 308.871 424.993C253.071 369.356 197.542 313.989 142.229 258.838Z" fill="#F3FF00"/>
<path d="M78.2304 259.378C63.1304 274.407 47.9763 289.435 32.2539 305.085C-19.3242 261.077 -79.5077 236.605 -147.593 232.18C-150.624 198.938 -117.041 120.501 -88.519 93.1416C-32.9629 148.536 22.5931 203.903 78.2304 259.378Z" fill="#F3FF00"/>
<path d="M186.096 149.75C150.429 106.984 130.404 57.2288 126.372 0C183.606 4.0473 233.506 24.0949 276.587 59.5222C246.441 89.5802 216.566 119.368 186.096 149.75Z" fill="#F3FF00"/>
<path d="M33.2826 367.764C69.3277 410.881 89.3528 460.69 93.439 517.999C36.2051 513.925 -13.8034 493.985 -57.3174 457.964C-26.9821 427.745 2.92022 397.983 33.2826 367.764Z" fill="#F3FF00"/>
<path d="M218.217 182.021C248.714 151.828 278.427 122.418 308.654 92.5215C344.7 135.747 364.806 185.474 369 242.946C311.793 238.926 262.191 218.608 218.217 182.021Z" fill="#F3FF00"/>
<path d="M-89.2224 424.778C-124.808 382.146 -144.833 332.499 -149 275.055C-91.7662 279.075 -42.1365 299.311 1.32336 335.791C-29.0931 365.687 -59.0495 395.124 -89.2224 424.805V424.778Z" fill="#F3FF00"/>
</g>
</g>
<defs>
<clipPath id="clip0_4001_1903">
<rect width="369" height="439" rx="24" fill="white"/>
</clipPath>
<clipPath id="clip1_4001_1903">
<rect width="518" height="518" fill="white"/>
</clipPath>
</defs>
</svg>
