<svg width="470" height="690" viewBox="0 0 470 690" fill="none" xmlns="http://www.w3.org/2000/svg">
<g filter="url(#filter0_d_2541_11209)">
<path d="M5 29C5 15.7452 15.7452 5 29 5H465V685H29C15.7452 685 5 674.255 5 661V29Z" fill="#292929"/>
</g>
<g clip-path="url(#clip0_2541_11209)">
<g clip-path="url(#clip1_2541_11209)">
<path d="M115.189 537.352C170.15 592.179 225.706 647.546 281.533 703.237C241.456 736.64 195.127 756.445 141.899 762.732C137.379 694.468 113.106 634.352 68.8882 582.843C84.5565 567.436 99.927 552.354 115.162 537.379L115.189 537.352Z" fill="#F3FF00"/>
<path d="M87.9122 247.295C92.4584 315.829 116.732 375.729 161.031 427.346C145.281 442.698 129.721 457.835 114.54 472.594C59.7418 417.956 4.21275 362.589 -51.7222 306.817C-11.7261 273.36 34.6292 253.636 87.9122 247.295Z" fill="#F3FF00"/>
<path d="M147.229 504.838C162.113 489.998 177.348 474.78 192.962 459.185C244.432 503.111 304.697 527.395 373.323 531.928C367.126 584.894 347.21 631.087 313.871 670.993C258.071 615.356 202.542 559.989 147.229 504.838Z" fill="#F3FF00"/>
<path d="M83.2304 505.378C68.1304 520.407 52.9763 535.435 37.2539 551.085C-14.3242 507.077 -74.5077 482.605 -142.593 478.18C-145.624 444.938 -112.041 366.501 -83.519 339.142C-27.9629 394.536 27.5931 449.903 83.2304 505.378Z" fill="#F3FF00"/>
<path d="M191.096 395.75C155.429 352.984 135.404 303.229 131.372 246C188.606 250.047 238.506 270.095 281.587 305.522C251.441 335.58 221.566 365.368 191.096 395.75Z" fill="#F3FF00"/>
<path d="M38.2826 613.764C74.3277 656.881 94.3528 706.69 98.439 764C41.2051 759.926 -8.80342 739.986 -52.3174 703.965C-21.9821 673.745 7.92022 643.984 38.2826 613.764Z" fill="#F3FF00"/>
<path d="M223.217 428.02C253.714 397.827 283.427 368.417 313.654 338.521C349.7 381.746 369.806 431.474 374 488.946C316.793 484.925 267.191 464.608 223.217 428.02Z" fill="#F3FF00"/>
<path d="M-84.2224 670.777C-119.808 628.146 -139.833 578.499 -144 521.054C-86.7662 525.075 -37.1365 545.311 6.32336 581.791C-24.0931 611.687 -54.0495 641.124 -84.2224 670.804V670.777Z" fill="#F3FF00"/>
</g>
</g>
<defs>
<filter id="filter0_d_2541_11209" x="0" y="0" width="470" height="690" filterUnits="userSpaceOnUse" color-interpolation-filters="sRGB">
<feFlood flood-opacity="0" result="BackgroundImageFix"/>
<feColorMatrix in="SourceAlpha" type="matrix" values="0 0 0 0 0 0 0 0 0 0 0 0 0 0 0 0 0 0 127 0" result="hardAlpha"/>
<feOffset/>
<feGaussianBlur stdDeviation="2.5"/>
<feComposite in2="hardAlpha" operator="out"/>
<feColorMatrix type="matrix" values="0 0 0 0 0.0666667 0 0 0 0 0.0666667 0 0 0 0 0.0666667 0 0 0 0.1 0"/>
<feBlend mode="normal" in2="BackgroundImageFix" result="effect1_dropShadow_2541_11209"/>
<feBlend mode="normal" in="SourceGraphic" in2="effect1_dropShadow_2541_11209" result="shape"/>
</filter>
<clipPath id="clip0_2541_11209">
<rect x="5" y="246" width="369" height="439" rx="24" fill="white"/>
</clipPath>
<clipPath id="clip1_2541_11209">
<rect width="518" height="518" fill="white" transform="translate(5 246)"/>
</clipPath>
</defs>
</svg>
