<svg xmlns="http://www.w3.org/2000/svg" width="15" height="14" viewBox="0 0 15 14" fill="none">
  <g clip-path="url(#clip0_434_2045)">
    <path fill-rule="evenodd" clip-rule="evenodd" d="M7.49762 0.349998C5.84619 0.350855 4.24891 0.93576 2.99139 2.00012C1.73388 3.06449 0.898121 4.53891 0.633571 6.15974C0.36902 7.78057 0.692921 9.44212 1.54736 10.8473C2.40181 12.2525 3.73107 13.3096 5.29747 13.8297C5.64304 13.8939 5.77321 13.6797 5.77321 13.4976C5.77321 13.3154 5.7663 12.7874 5.76399 12.2102C3.82878 12.6282 3.41986 11.3935 3.41986 11.3935C3.10423 10.5918 2.64808 10.381 2.64808 10.381C2.01683 9.95268 2.69531 9.9607 2.69531 9.9607C3.39452 10.0099 3.76198 10.6743 3.76198 10.6743C4.38171 11.7314 5.38962 11.4256 5.78588 11.2469C5.84808 10.7991 6.02893 10.4944 6.22821 10.3215C4.68235 10.1474 3.05816 9.55409 3.05816 6.90374C3.04858 6.21638 3.3051 5.55166 3.77465 5.04711C3.70323 4.87302 3.46478 4.16977 3.84261 3.21454C3.84261 3.21454 4.42663 3.02899 5.75593 3.92352C6.89613 3.61348 8.09912 3.61348 9.23931 3.92352C10.5675 3.02899 11.1503 3.21454 11.1503 3.21454C11.5293 4.16748 11.2909 4.87073 11.2194 5.04711C11.6905 5.55175 11.9475 6.21762 11.9371 6.90603C11.9371 9.56211 10.3094 10.1474 8.76126 10.318C9.01008 10.5334 9.2324 10.9537 9.2324 11.5997C9.2324 12.5252 9.22433 13.2696 9.22433 13.4976C9.22433 13.682 9.34989 13.8973 9.70237 13.8297C11.269 13.3095 12.5984 12.2522 13.4528 10.8468C14.3072 9.44139 14.6309 7.77959 14.3661 6.15861C14.1012 4.53763 13.2651 3.06319 12.0071 1.99901C10.7492 0.934831 9.15155 0.350312 7.49992 0.349998H7.49762Z" fill="white"/>
    <path d="M3.17541 10.2814C3.16043 10.3158 3.10514 10.3261 3.06022 10.302C3.01529 10.278 2.98189 10.2333 2.99802 10.1978C3.01414 10.1623 3.06828 10.1531 3.11321 10.1772C3.15813 10.2012 3.19269 10.247 3.17541 10.2814Z" fill="white"/>
    <path d="M3.45782 10.5941C3.43397 10.606 3.40667 10.6094 3.38062 10.6035C3.35456 10.5977 3.33136 10.583 3.31499 10.562C3.27006 10.5139 3.26084 10.4475 3.2954 10.4177C3.32996 10.3879 3.39216 10.4017 3.43709 10.4498C3.48201 10.4979 3.49238 10.5643 3.45782 10.5941Z" fill="white"/>
    <path d="M3.73178 10.9915C3.68916 11.0213 3.61658 10.9915 3.57627 10.9319C3.56512 10.9213 3.55625 10.9085 3.5502 10.8943C3.54414 10.8801 3.54102 10.8649 3.54102 10.8495C3.54102 10.8341 3.54414 10.8188 3.5502 10.8047C3.55625 10.7905 3.56512 10.7777 3.57627 10.767C3.61889 10.7384 3.69146 10.767 3.73178 10.8254C3.7721 10.8838 3.77325 10.9617 3.73178 10.9915Z" fill="white"/>
    <path d="M4.10404 11.3764C4.06602 11.4187 3.98885 11.4073 3.92549 11.35C3.86214 11.2927 3.84716 11.2149 3.88517 11.1736C3.92318 11.1324 4.00036 11.1438 4.06602 11.2C4.13168 11.2561 4.14435 11.3351 4.10404 11.3764Z" fill="white"/>
    <path d="M4.62569 11.6008C4.60841 11.6547 4.53008 11.6787 4.45175 11.6558C4.37342 11.6329 4.32159 11.5688 4.33656 11.5138C4.35154 11.4588 4.43102 11.4336 4.5105 11.4588C4.58998 11.484 4.64067 11.5447 4.62569 11.6008Z" fill="black"/>
    <path d="M5.19483 11.6398C5.19483 11.6959 5.13032 11.744 5.04738 11.7452C4.96445 11.7463 4.89648 11.7005 4.89648 11.6444C4.89648 11.5882 4.96099 11.5401 5.04393 11.539C5.12686 11.5378 5.19483 11.5825 5.19483 11.6398Z" fill="black"/>
    <path d="M5.7247 11.5516C5.73507 11.6077 5.67747 11.6661 5.59453 11.6799C5.5116 11.6936 5.43903 11.6604 5.42866 11.6054C5.41829 11.5505 5.47819 11.4909 5.55882 11.476C5.63946 11.4611 5.71433 11.4955 5.7247 11.5516Z" fill="black"/>
  </g>
  <defs>
    <clipPath id="clip0_434_2045">
      <rect width="14" height="14" fill="white" transform="translate(0.5)"/>
    </clipPath>
  </defs>
</svg>