<svg xmlns="http://www.w3.org/2000/svg" width="15" height="14" viewBox="0 0 15 14" fill="none">
  <g clip-path="url(#clip0_434_2033)">
    <path fill-rule="evenodd" clip-rule="evenodd" d="M14.22 7.1591C14.22 6.66274 14.1755 6.18546 14.0927 5.72728H7.5V8.43501H11.2673C11.105 9.31001 10.6118 10.0514 9.87045 10.5477V12.3041H12.1327C13.4564 11.0855 14.22 9.29092 14.22 7.1591Z" fill="#4285F4"/>
    <path fill-rule="evenodd" clip-rule="evenodd" d="M7.50008 14C9.39008 14 10.9746 13.3732 12.1328 12.3041L9.87054 10.5477C9.24372 10.9677 8.4419 11.2159 7.50008 11.2159C5.6769 11.2159 4.13372 9.98454 3.58327 8.32999H1.24463V10.1436C2.39645 12.4314 4.76372 14 7.50008 14Z" fill="#34A853"/>
    <path fill-rule="evenodd" clip-rule="evenodd" d="M3.58318 8.33001C3.44318 7.91001 3.36364 7.46137 3.36364 7.00001C3.36364 6.53864 3.44318 6.09001 3.58318 5.67001V3.85637H1.24455C0.770454 4.80137 0.5 5.87046 0.5 7.00001C0.5 8.12955 0.770454 9.19864 1.24455 10.1436L3.58318 8.33001Z" fill="#FBBC05"/>
    <path fill-rule="evenodd" clip-rule="evenodd" d="M7.50008 2.78409C8.52781 2.78409 9.45054 3.13727 10.176 3.83091L12.1837 1.82318C10.9714 0.693636 9.3869 0 7.50008 0C4.76372 0 2.39645 1.56864 1.24463 3.85636L3.58327 5.67C4.13372 4.01545 5.6769 2.78409 7.50008 2.78409Z" fill="#EA4335"/>
  </g>
  <defs>
    <clipPath id="clip0_434_2033">
      <rect width="14" height="14" fill="white" transform="translate(0.5)"/>
    </clipPath>
  </defs>
</svg>