<svg width="136" height="19" viewBox="0 0 136 19" fill="none" xmlns="http://www.w3.org/2000/svg">
<path d="M0.284576 0.963867H2.29727L9.08243 7.33594L16.0522 0.963867H17.9945V15H12.2201V10.4473L8.63419 14.3848L5.14493 10.5527V15H0.284576V0.963867ZM20.491 14.7627C21.1121 14.9326 21.8914 15.0176 22.8289 15.0176C23.4207 15.0176 23.8162 14.7656 24.0154 14.2617C24.074 14.1094 24.1033 13.9512 24.1033 13.7871C24.1033 13.623 24.074 13.4502 24.0154 13.2686L19.4978 4.0752H24.7361L26.6257 8.30273L28.3923 4.0752H32.9978L28.8933 14.2793C28.3484 15.6094 27.7478 16.5908 27.0916 17.2236C26.2888 17.9971 25.2986 18.3838 24.1209 18.3838C22.5095 18.3838 21.2996 18.2168 20.491 17.8828V14.7627ZM44.3891 11.6689C44.9809 11.6689 45.8364 11.25 46.9556 10.4121V14.71C45.0337 15.4365 43.2612 15.5391 41.6382 15.0176C40.0151 14.4961 38.8638 13.5645 38.1841 12.2227C37.8442 11.543 37.6743 10.7461 37.6743 9.83203C37.6743 7.99219 38.3071 6.50098 39.5727 5.3584C40.8384 4.21582 42.4848 3.64453 44.5122 3.64453C45.3501 3.64453 46.1059 3.77051 46.7798 4.02246V7.40625C46.6216 7.27148 46.3989 7.2041 46.1118 7.2041C45.8247 7.2041 45.5171 7.29492 45.1889 7.47656C44.8608 7.6582 44.562 7.90137 44.2925 8.20605C43.6714 8.90918 43.3608 9.63281 43.3608 10.377C43.3667 11.1152 43.5923 11.5312 44.0376 11.625C44.1548 11.6484 44.272 11.6631 44.3891 11.6689ZM49.8739 14.0332C49.4051 13.5938 49.0301 13.043 48.7489 12.3809C48.4735 11.7129 48.3358 10.9951 48.3358 10.2275C48.3358 9.45996 48.412 8.79492 48.5643 8.23242C48.869 7.11328 49.4022 6.17285 50.1639 5.41113C50.5272 5.03613 50.9315 4.71973 51.3768 4.46191C52.2909 3.92871 53.2547 3.66211 54.2684 3.66211C55.2879 3.66211 56.1815 3.99902 56.9491 4.67285C57.1952 4.88965 57.409 5.13867 57.5907 5.41992L58.8475 4.0752H61.7303V15H58.8475L57.5907 13.1807C56.6297 14.5986 55.1737 15.3105 53.2225 15.3164C52.6834 15.3223 52.1063 15.2168 51.4911 15C50.8817 14.7891 50.3426 14.4668 49.8739 14.0332ZM56.993 7.38867C56.7821 7.26562 56.5301 7.2041 56.2372 7.2041C55.9442 7.2041 55.6336 7.30957 55.3055 7.52051C54.9832 7.72559 54.6932 7.98633 54.4354 8.30273C53.8612 9.01172 53.5741 9.73242 53.5741 10.4648C53.5741 10.9805 53.7323 11.3438 54.0487 11.5547C54.3416 11.748 54.787 11.7217 55.3846 11.4756C55.9881 11.2236 56.5243 10.8984 56.993 10.5V7.38867ZM68.4719 15H63.4885V0.208008H68.4719V15ZM77.3931 7.2041C77.3931 6.68848 77.1529 6.43066 76.6724 6.43066C76.1216 6.4834 75.7642 6.76758 75.6002 7.2832C75.5181 7.5293 75.4595 7.81641 75.4244 8.14453C75.3951 8.4668 75.3482 8.8125 75.2838 9.18164L77.2086 8.75098L77.3755 7.40625L77.3931 7.2041ZM76.2066 11.2031C76.2066 11.2031 76.0455 11.2031 75.7232 11.2031C75.5709 11.2031 75.4244 11.1973 75.2838 11.1855C75.2838 11.8828 75.6558 12.2637 76.4 12.3281C76.605 12.3457 76.8043 12.3545 76.9976 12.3545C77.4957 12.3545 78.1197 12.2402 78.8697 12.0117C79.6255 11.7832 80.3023 11.4111 80.9 10.8955L81.4449 13.6289C80.1382 14.7598 78.1636 15.3252 75.5211 15.3252C74.0035 15.3252 72.6998 14.8828 71.6099 13.998C70.4263 13.0312 69.8345 11.6924 69.8345 9.98145C69.8345 8.69238 70.1685 7.53516 70.8365 6.50977C71.4576 5.57227 72.2984 4.86035 73.3589 4.37402C74.4195 3.8877 75.565 3.64453 76.7955 3.64453C78.3892 3.64453 79.5933 3.99316 80.4078 4.69043C81.2281 5.3877 81.6353 6.24902 81.6295 7.27441C81.6295 8.2998 81.1402 9.21094 80.1617 10.0078C79.1832 10.8047 77.8648 11.2031 76.2066 11.2031ZM89.0478 7.0459C88.579 7.0459 88.3447 7.42383 88.3447 8.17969V15H83.124V4.0752H86.0068L87.2636 5.78027C87.7324 5.12988 88.3798 4.61426 89.206 4.2334C90.038 3.85254 90.8144 3.66211 91.5351 3.66211C92.8593 3.66211 93.9081 4.01367 94.6816 4.7168C95.4609 5.41992 95.8505 6.36328 95.8505 7.54688V15H90.5947V9.72656C90.5947 7.93945 90.079 7.0459 89.0478 7.0459ZM103.849 3.67969C104.546 3.67969 105.264 3.79395 106.002 4.02246V0.208008H111.117V15H107.857L106.6 13.1807C105.528 14.5986 104.118 15.3076 102.372 15.3076C100.972 15.3076 99.7474 14.833 98.6985 13.8838C97.6556 12.9287 97.1341 11.707 97.1341 10.2188C97.1341 8.73047 97.4388 7.50586 98.0481 6.54492C99.2552 4.63477 101.189 3.67969 103.849 3.67969ZM106.002 7.38867C105.803 7.26562 105.586 7.2041 105.352 7.2041C105.117 7.2041 104.892 7.25098 104.675 7.34473C104.23 7.53809 103.831 7.85156 103.48 8.28516C103.292 8.49609 103.134 8.72168 103.005 8.96191C102.724 9.47754 102.583 9.99023 102.583 10.5C102.583 11.0039 102.739 11.3555 103.049 11.5547C103.16 11.625 103.295 11.6631 103.453 11.6689C104.215 11.6689 105.065 11.2852 106.002 10.5176V7.38867ZM114.097 14.0332C113.629 13.5938 113.254 13.043 112.972 12.3809C112.697 11.7129 112.559 10.9951 112.559 10.2275C112.559 9.45996 112.635 8.79492 112.788 8.23242C113.092 7.11328 113.626 6.17285 114.387 5.41113C114.751 5.03613 115.155 4.71973 115.6 4.46191C116.514 3.92871 117.478 3.66211 118.492 3.66211C119.511 3.66211 120.405 3.99902 121.173 4.67285C121.419 4.88965 121.632 5.13867 121.814 5.41992L123.071 4.0752H125.954V15H123.071L121.814 13.1807C120.853 14.5986 119.397 15.3105 117.446 15.3164C116.907 15.3223 116.33 15.2168 115.715 15C115.105 14.7891 114.566 14.4668 114.097 14.0332ZM121.216 7.38867C121.006 7.26562 120.754 7.2041 120.461 7.2041C120.168 7.2041 119.857 7.30957 119.529 7.52051C119.207 7.72559 118.917 7.98633 118.659 8.30273C118.085 9.01172 117.798 9.73242 117.798 10.4648C117.798 10.9805 117.956 11.3438 118.272 11.5547C118.565 11.748 119.01 11.7217 119.608 11.4756C120.212 11.2236 120.748 10.8984 121.216 10.5V7.38867ZM135.508 8.19727C134.969 8.19727 134.415 8.39355 133.847 8.78613C133.278 9.17871 132.991 9.55078 132.985 9.90234V15H127.694V4.0752H132.985V5.24414C133.284 4.79297 133.653 4.43262 134.093 4.16309C134.538 3.89355 135.01 3.73242 135.508 3.67969V8.19727Z" fill="#292929"/>
</svg>
