<svg width="24" height="24" viewBox="0 0 24 24" fill="none" xmlns="http://www.w3.org/2000/svg">
<g id="plus">
<path id="Union" fill-rule="evenodd" clip-rule="evenodd" d="M12.0001 6C11.5267 6 11.143 6.38376 11.143 6.85714V11.1428H6.85714C6.38376 11.1428 6 11.5265 6 11.9999C6 12.4733 6.38376 12.857 6.85714 12.857H11.143V17.1429C11.143 17.6162 11.5267 18 12.0001 18C12.4735 18 12.8572 17.6162 12.8572 17.1429V12.857H17.1429C17.6162 12.857 18 12.4733 18 11.9999C18 11.5265 17.6162 11.1428 17.1429 11.1428H12.8572V6.85714C12.8572 6.38376 12.4735 6 12.0001 6Z" fill="#F0F0E2"/>
</g>
</svg>
