<svg width="24" height="24" viewBox="0 0 24 24" fill="none" xmlns="http://www.w3.org/2000/svg">
<rect width="24" height="24" rx="4" fill="white"/>
<path d="M16.0053 7.01713C15.7969 7.05283 15.5876 7.14351 15.4604 7.30776L12.1394 11.5924C11.9535 11.8316 11.9535 12.1558 12.1394 12.395L15.4604 16.6797C15.7148 17.0082 16.2465 17.0996 16.628 16.881C17.0095 16.6618 17.1158 16.2048 16.8615 15.877L13.8519 11.9937L16.8615 8.11043C17.1158 7.78265 17.0095 7.32562 16.628 7.10639C16.4372 6.99713 16.2137 6.98142 16.0053 7.01713Z" fill="#292929"/>
<path d="M11.0053 7.01713C10.7969 7.05283 10.5876 7.14351 10.4604 7.30776L7.13942 11.5924C6.95353 11.8316 6.95353 12.1558 7.13942 12.395L10.4604 16.6797C10.7148 17.0082 11.2465 17.0996 11.628 16.881C12.0095 16.6618 12.1158 16.2048 11.8615 15.877L8.85188 11.9937L11.8615 8.11043C12.1158 7.78265 12.0095 7.32562 11.628 7.10639C11.4372 6.99713 11.2137 6.98142 11.0053 7.01713Z" fill="#292929"/>
</svg>
