<svg width="24" height="24" viewBox="0 0 24 24" fill="none" xmlns="http://www.w3.org/2000/svg">
<g id="box">
<path id="Vector" d="M12 3C11.256 3 10.498 3.14311 9.90601 3.43835L3.562 6.59697C3.181 6.80514 3 7.14142 3 7.50372V14.9479C3 16.1499 3.82801 17.476 4.90601 18.0124L10.156 20.6086C11.206 21.13 12.794 21.131 13.844 20.6086L19.094 18.0124C20.181 17.472 21 16.1599 21 14.9479V7.50372C21 7.14142 20.817 6.77512 20.438 6.59697L14.094 3.43835C13.502 3.14311 12.744 3 12 3ZM10.812 5.22083C11.436 4.91057 12.564 4.91057 13.188 5.22083L17.75 7.50372L13.188 9.75559C12.564 10.0658 11.436 10.0658 10.812 9.75559C10.742 9.72056 6.914 7.834 6.25 7.50372L10.812 5.22083ZM5 9.13007C5.922 9.58945 6.693 9.94973 7.688 10.4441C8.515 10.8545 9.62301 11.407 9.90601 11.5381C10.34 11.7392 10.627 11.8403 11 11.9134V18.7941L5.78101 16.1989C5.38301 16.0007 5 15.3872 5 14.9479V9.13007ZM19 9.13007V14.9479C19 15.3972 18.595 16.0268 18.188 16.2299L13 18.7941V11.9134C13.373 11.8403 13.754 11.7232 14.062 11.5691L19 9.13007Z" fill="#F0F0E2"/>
</g>
</svg>
