<svg width="24" height="24" viewBox="0 0 24 24" fill="none" xmlns="http://www.w3.org/2000/svg">
<path d="M20 12C20 16.4183 16.4183 20 12 20C7.58172 20 4 16.4183 4 12C4 7.58172 7.58172 4 12 4C16.4183 4 20 7.58172 20 12Z" fill="#292929"/>
<path fill-rule="evenodd" clip-rule="evenodd" d="M15.6711 9.17729C15.3751 8.88752 14.8952 8.88752 14.5992 9.17729L11.0411 12.6607L9.36194 11.2203C9.04754 10.9506 8.56874 10.9822 8.2925 11.2908L8.14801 11.4523C7.87177 11.7609 7.90269 12.2297 8.21708 12.4994L11.1321 14.9999L11.2997 14.8126L15.8276 10.3799C16.1236 10.0901 16.1236 9.6203 15.8276 9.33053L15.6711 9.17729Z" fill="white"/>
</svg>
