<svg xmlns="http://www.w3.org/2000/svg" width="24" height="24" viewBox="0 0 24 24" fill="none">
  <path d="M20 12C20 16.4183 16.4183 20 12 20C7.58172 20 4 16.4183 4 12C4 7.58172 7.58172 4 12 4C16.4183 4 20 7.58172 20 12Z" fill="#292929"/>
  <path fill-rule="evenodd" clip-rule="evenodd" d="M15.6709 9.17729C15.3749 8.88752 14.8951 8.88752 14.5991 9.17729L11.041 12.6607L9.36181 11.2203C9.04742 10.9506 8.56862 10.9822 8.29238 11.2908L8.14789 11.4523C7.87164 11.7609 7.90257 12.2297 8.21696 12.4994L11.132 14.9999L11.2996 14.8126L15.8275 10.3799C16.1235 10.0901 16.1235 9.6203 15.8275 9.33053L15.6709 9.17729Z" fill="white"/>
</svg>