<svg width="15" height="14" viewBox="0 0 15 14" fill="none" xmlns="http://www.w3.org/2000/svg">
<g id="Social Icons" clip-path="url(#clip0_815_1226)">
<path id="Vector" d="M12.3516 2.42413C11.4593 2.01469 10.5024 1.71304 9.50194 1.54028C9.48372 1.53694 9.46552 1.54527 9.45613 1.56194C9.33307 1.78082 9.19676 2.06636 9.1013 2.29079C8.02524 2.12969 6.95469 2.12969 5.90069 2.29079C5.80521 2.06137 5.66395 1.78082 5.54033 1.56194C5.53095 1.54583 5.51275 1.5375 5.49453 1.54028C4.49461 1.71249 3.53774 2.01414 2.64488 2.42413C2.63715 2.42746 2.63052 2.43302 2.62613 2.44023C0.811145 5.15178 0.313946 7.79667 0.557855 10.4088C0.558959 10.4216 0.566132 10.4338 0.576066 10.4416C1.77354 11.3209 2.9335 11.8548 4.07191 12.2087C4.09013 12.2142 4.10944 12.2076 4.12103 12.1926C4.39032 11.8248 4.63037 11.4371 4.83619 11.0293C4.84834 11.0054 4.83675 10.9771 4.81192 10.9676C4.43116 10.8232 4.0686 10.6471 3.71984 10.4471C3.69226 10.431 3.69005 10.3915 3.71543 10.3727C3.78882 10.3177 3.86223 10.2604 3.93231 10.2027C3.94499 10.1921 3.96265 10.1899 3.97756 10.1966C6.26875 11.2426 8.74923 11.2426 11.0134 10.1966C11.0283 10.1893 11.046 10.1916 11.0592 10.2021C11.1293 10.2599 11.2027 10.3177 11.2766 10.3727C11.302 10.3915 11.3003 10.431 11.2728 10.4471C10.924 10.651 10.5614 10.8232 10.1801 10.9671C10.1553 10.9765 10.1443 11.0054 10.1564 11.0293C10.3666 11.4365 10.6067 11.8243 10.871 12.192C10.8821 12.2076 10.9019 12.2142 10.9201 12.2087C12.0641 11.8548 13.224 11.3209 14.4215 10.4416C14.432 10.4338 14.4386 10.4221 14.4397 10.4093C14.7316 7.38945 13.9508 4.76625 12.3698 2.44079C12.3659 2.43302 12.3593 2.42746 12.3516 2.42413ZM5.17835 8.81828C4.48854 8.81828 3.92016 8.18499 3.92016 7.40724C3.92016 6.62949 4.47752 5.9962 5.17835 5.9962C5.88468 5.9962 6.44755 6.63505 6.43651 7.40724C6.43651 8.18499 5.87915 8.81828 5.17835 8.81828ZM9.83027 8.81828C9.14048 8.81828 8.5721 8.18499 8.5721 7.40724C8.5721 6.62949 9.12944 5.9962 9.83027 5.9962C10.5366 5.9962 11.0995 6.63505 11.0885 7.40724C11.0885 8.18499 10.5366 8.81828 9.83027 8.81828Z" fill="#5865F2"/>
</g>
<defs>
<clipPath id="clip0_815_1226">
<rect width="14" height="14" fill="white" transform="translate(0.5)"/>
</clipPath>
</defs>
</svg>
