<svg width="24" height="24" viewBox="0 0 24 24" fill="none" xmlns="http://www.w3.org/2000/svg">
<g id="globe-fill">
<path id="Vector" d="M12.0125 4C10.9732 4 9.80139 7.16 9.65109 11.2H14.3738C14.2235 7.1608 13.0517 4 12.0125 4ZM9.47586 4.4C6.51248 5.3832 4.28131 8.0808 4 11.2H8.04361C8.13283 8.4488 8.63193 6.0088 9.47586 4.4ZM14.5491 4.4C15.393 6.0088 15.8921 8.4488 15.9813 11.2H20C19.709 8.044 17.5414 5.4008 14.5491 4.4ZM4.02492 12.8C4.31427 16.0056 6.55026 18.632 9.50078 19.6C8.65766 17.9912 8.13283 15.5512 8.04361 12.8H4.02492ZM9.65109 12.8C9.80139 16.8392 10.9732 20 12.0125 20C13.0517 20 14.2235 16.84 14.3738 12.8H9.65109ZM15.9813 12.8C15.8921 15.5512 15.3673 17.9912 14.5241 19.6C17.555 18.5736 19.7042 15.904 20 12.8H15.9813Z" fill="#292929"/>
</g>
</svg>
