<svg width="69" height="26" viewBox="0 0 69 26" fill="none" xmlns="http://www.w3.org/2000/svg">
<path d="M0.878906 0.285156H8.16797V13.3633H14.4609V19H0.878906V0.285156ZM25.3438 8.58203C25.1875 8.50391 24.9844 8.46484 24.7344 8.46484C24.4922 8.46484 24.2227 8.53906 23.9258 8.6875C23.6289 8.82812 23.3359 9.02344 23.0469 9.27344C22.4375 9.80469 21.9258 10.4492 21.5117 11.207C21.0977 11.9648 20.8906 12.6641 20.8906 13.3047C20.8906 13.9375 21.1328 14.3633 21.6172 14.582C21.7891 14.6602 22 14.6992 22.25 14.6992C22.5 14.6992 22.7617 14.625 23.0352 14.4766C23.3086 14.3203 23.582 14.1133 23.8555 13.8555C24.4258 13.3164 24.9258 12.6641 25.3555 11.8984C25.7852 11.125 26 10.4336 26 9.82422C26 9.21484 25.7812 8.80078 25.3438 8.58203ZM23.0703 19.4336C20.8359 19.4336 18.9102 18.7266 17.293 17.3125C15.5664 15.8125 14.7031 13.9258 14.7031 11.6523C14.7031 9.37109 15.5117 7.50781 17.1289 6.0625C18.7461 4.60938 20.7422 3.88281 23.1172 3.88281C25.4922 3.88281 27.4883 4.59375 29.1055 6.01562C30.7227 7.42969 31.5352 9.32422 31.543 11.6992C31.5508 13.2227 31.1641 14.5703 30.3828 15.7422C29.6016 16.9141 28.5586 17.8203 27.2539 18.4609C25.9492 19.1016 24.5547 19.4258 23.0703 19.4336ZM38.1602 25V20.8516C38.5586 20.8984 38.9922 20.9648 39.4609 21.0508C39.9375 21.1367 40.3984 21.1797 40.8438 21.1797C41.2891 21.1797 41.6992 21.1289 42.0742 21.0273C42.457 20.9258 42.7969 20.7266 43.0938 20.4297C43.7344 19.7891 44.0586 18.7109 44.0664 17.1953C42.6992 18.6875 41.043 19.4336 39.0977 19.4336C37.1602 19.4414 35.543 18.8281 34.2461 17.5938C32.957 16.3594 32.3125 14.5977 32.3125 12.3086C32.3125 10.668 32.6719 9.21094 33.3906 7.9375C34.1094 6.65625 35.0742 5.66016 36.2852 4.94922C37.5039 4.23828 38.7969 3.88281 40.1641 3.88281C41.5391 3.88281 42.7266 4.33203 43.7266 5.23047C44.0547 5.51953 44.3359 5.85156 44.5703 6.22656L46.2578 4.43359H50.0898V19C50.0977 22.0078 48.7422 23.9844 46.0234 24.9297C44.9297 25.3125 43.6758 25.5039 42.2617 25.5039C40.8555 25.5039 39.4883 25.3359 38.1602 25ZM43.7852 8.85156C43.5039 8.6875 43.207 8.60547 42.8945 8.60547C42.5898 8.60547 42.293 8.66797 42.0039 8.79297C41.4102 9.05078 40.8789 9.46875 40.4102 10.0469C39.6211 10.9609 39.2266 11.9297 39.2266 12.9531C39.2266 13.6406 39.4297 14.125 39.8359 14.4062C40.1797 14.6328 40.7109 14.6289 41.4297 14.3945C42.1172 14.168 42.9023 13.7109 43.7852 13.0234V8.85156ZM61.8984 8.58203C61.7422 8.50391 61.5391 8.46484 61.2891 8.46484C61.0469 8.46484 60.7773 8.53906 60.4805 8.6875C60.1836 8.82812 59.8906 9.02344 59.6016 9.27344C58.9922 9.80469 58.4805 10.4492 58.0664 11.207C57.6523 11.9648 57.4453 12.6641 57.4453 13.3047C57.4453 13.9375 57.6875 14.3633 58.1719 14.582C58.3438 14.6602 58.5547 14.6992 58.8047 14.6992C59.0547 14.6992 59.3164 14.625 59.5898 14.4766C59.8633 14.3203 60.1367 14.1133 60.4102 13.8555C60.9805 13.3164 61.4805 12.6641 61.9102 11.8984C62.3398 11.125 62.5547 10.4336 62.5547 9.82422C62.5547 9.21484 62.3359 8.80078 61.8984 8.58203ZM59.625 19.4336C57.3906 19.4336 55.4648 18.7266 53.8477 17.3125C52.1211 15.8125 51.2578 13.9258 51.2578 11.6523C51.2578 9.37109 52.0664 7.50781 53.6836 6.0625C55.3008 4.60938 57.2969 3.88281 59.6719 3.88281C62.0469 3.88281 64.043 4.59375 65.6602 6.01562C67.2773 7.42969 68.0898 9.32422 68.0977 11.6992C68.1055 13.2227 67.7188 14.5703 66.9375 15.7422C66.1562 16.9141 65.1133 17.8203 63.8086 18.4609C62.5039 19.1016 61.1094 19.4258 59.625 19.4336Z" fill="#292929"/>
</svg>
