<svg width="24" height="24" viewBox="0 0 24 24" fill="none" xmlns="http://www.w3.org/2000/svg">
<g id="megaphone-fill">
<path id="Vector" d="M18.7998 5C18.1374 5 17.5998 5.54519 17.5998 6.21875V16.7812C17.5998 17.454 18.1374 18 18.7998 18C19.4622 18 19.9998 17.4548 19.9998 16.7812C19.9998 16.7812 19.9862 6.807 19.9998 6.21875C20.0134 5.6305 19.4622 5 18.7998 5ZM15.9998 6.625C12.7999 8.25 8.79993 8.25 8.79993 8.25V13.9375V14.75V15.5625C8.79993 16.9088 9.87431 18 11.1999 18C12.5255 18 13.5999 16.9088 13.5999 15.5625V15.4609C14.4014 15.6868 15.2238 15.9809 15.9998 16.375C15.9998 15.5625 15.9998 7.4375 15.9998 6.625ZM6.52477 8.25C5.11439 8.25 4 9.70113 4 11.5C4 13.2948 5.13597 14.75 6.55035 14.75H7.19995V8.25H6.52477ZM10.4063 14.8532C10.9143 14.9084 11.2287 14.9434 11.9983 15.0847L11.9999 15.5625C11.9999 16.011 11.6415 16.375 11.1999 16.375C10.7583 16.375 10.3999 16.011 10.3999 15.5625L10.4063 14.8532Z" fill="#F0F0E2"/>
</g>
</svg>
