<svg width="24" height="24" viewBox="0 0 24 24" fill="none" xmlns="http://www.w3.org/2000/svg">
<g id="people-fill">
<path id="Vector" d="M14.8 5C12.8118 5 11.2 6.56705 11.2 8.49961C11.2 10.4322 12.8118 11.9992 14.8 11.9992C16.7882 11.9992 18.4 10.4322 18.4 8.49961C18.4 6.56705 16.7882 5 14.8 5ZM8.8 5.77769C7.03272 5.77769 5.6 7.17053 5.6 8.88845C5.6 10.6064 7.03272 11.9992 8.8 11.9992C9.46352 11.9992 10.0692 11.8219 10.6022 11.4595C9.2352 9.48419 9.42896 7.59282 10.174 6.06932C9.74848 5.87335 9.28112 5.77769 8.8 5.77769ZM6.45 13.0444C4.98272 13.6331 4 15.0758 4 16.6654V18.2207C4 18.65 4.35816 18.9984 4.8 18.9984L8.12224 19C7.93504 18.409 7.99008 17.4508 8.0024 16.6755C8.0284 15.0291 8.7288 13.8548 9.00312 13.5452C8.49896 13.5414 7.89392 13.4224 7.45 13.2389C7.3428 13.1945 7.28056 13.1595 7.07504 13.0685C6.87352 12.9791 6.65464 12.962 6.45 13.0444ZM12.05 13.0444C10.5827 13.6331 9.6 15.0758 9.6 16.6654V18.2207C9.6 18.65 9.95816 18.9984 10.4 18.9984H19.2C19.6418 18.9984 20 18.65 20 18.2207V16.6654C20 15.1131 19.0118 13.7055 17.55 13.0927C17.3442 13.0063 17.1045 13.004 16.9 13.0927C16.1922 13.4014 15.5026 13.5546 14.8 13.5546C14.0998 13.5546 13.4078 13.3928 12.675 13.0685C12.4735 12.9791 12.2546 12.962 12.05 13.0444Z" fill="#292929"/>
</g>
</svg>
