<svg width="24" height="24" viewBox="0 0 24 24" fill="none" xmlns="http://www.w3.org/2000/svg">
<g id="stack-fill">
<path id="Vector" d="M11.6252 4.09876L6.37928 7.09673C5.87567 7.38446 5.87567 8.12061 6.37928 8.40834C7.03502 8.78309 10.9695 11.0316 11.6252 11.4063C11.8553 11.538 12.1438 11.538 12.3746 11.4063L17.6206 8.40834C18.1242 8.12061 18.1242 7.38446 17.6206 7.09673L12.3746 4.09876C12.1446 3.96708 11.856 3.96708 11.6252 4.09876ZM6.56663 10.7739C6.38152 10.8244 6.20091 10.9455 6.09824 11.1253C5.8929 11.4846 6.0203 11.9504 6.37928 12.1558L11.6252 15.1538C11.8553 15.2855 12.1438 15.2855 12.3746 15.1538L17.6206 12.1558C17.9803 11.9504 18.1069 11.4846 17.9016 11.1253C17.6963 10.7659 17.2309 10.6388 16.8711 10.8442L11.9999 13.6314L7.12869 10.8442C6.94883 10.7415 6.75174 10.7235 6.56663 10.7739ZM6.56663 14.5214C6.38152 14.5719 6.20091 14.693 6.09824 14.8727C5.8929 15.2321 6.0203 15.6979 6.37928 15.9033L11.6252 18.9012C11.8553 19.0329 12.1438 19.0329 12.3746 18.9012L17.6206 15.9033C17.9803 15.6979 18.1069 15.2321 17.9016 14.8727C17.6963 14.5133 17.2309 14.3863 16.8711 14.5917L11.9999 17.3789L7.12869 14.5917C6.94883 14.489 6.75174 14.4709 6.56663 14.5214Z" fill="#F0F0E2"/>
</g>
</svg>
