<svg width="24" height="24" viewBox="0 0 24 24" fill="none" xmlns="http://www.w3.org/2000/svg">
<g id="Trash">
<path id="Vector 8 (Stroke)" fill-rule="evenodd" clip-rule="evenodd" d="M10.5417 15.084C10.1044 15.084 9.75 14.7295 9.75 14.2923L9.75 11.9173C9.75 11.4801 10.1044 11.1257 10.5417 11.1257C10.9789 11.1257 11.3333 11.4801 11.3333 11.9173L11.3333 14.2923C11.3333 14.7295 10.9789 15.084 10.5417 15.084Z" fill="#292929"/>
<path id="Vector 9 (Stroke)" fill-rule="evenodd" clip-rule="evenodd" d="M13.7083 15.084C13.2711 15.084 12.9166 14.7295 12.9166 14.2923L12.9166 11.9173C12.9166 11.4801 13.2711 11.1257 13.7083 11.1257C14.1455 11.1257 14.5 11.4801 14.5 11.9173L14.5 14.2923C14.5 14.7295 14.1455 15.084 13.7083 15.084Z" fill="#292929"/>
<path id="Rectangle 41 (Stroke)" fill-rule="evenodd" clip-rule="evenodd" d="M5.81244 8.76356C5.62483 8.75076 5.3797 8.75033 5 8.75033V7.16699C5.00847 7.16699 5.01691 7.16699 5.02532 7.16699C5.04232 7.16699 5.0592 7.16699 5.07597 7.16699H19.174C19.1908 7.16699 19.2077 7.16699 19.2247 7.16699L19.25 7.16699V8.75033C18.8703 8.75033 18.6252 8.75076 18.4376 8.76356C18.2571 8.77587 18.1883 8.79694 18.1554 8.81059C17.9614 8.89094 17.8073 9.04506 17.7269 9.23904C17.7133 9.27198 17.6922 9.34072 17.6799 9.52122C17.6671 9.70883 17.6667 9.95396 17.6667 10.3337L17.6667 15.1358C17.6667 15.8376 17.6667 16.4423 17.6016 16.9265C17.5319 17.4454 17.3745 17.9429 16.971 18.3464C16.5676 18.7499 16.0701 18.9072 15.5512 18.977C15.0669 19.0421 14.4623 19.042 13.7605 19.042H10.4895C9.78775 19.042 9.18306 19.0421 8.69883 18.977C8.17988 18.9072 7.68244 18.7499 7.27895 18.3464C6.87547 17.9429 6.71813 17.4454 6.64836 16.9265C6.58326 16.4423 6.58329 15.8376 6.58333 15.1358L6.58333 10.3337C6.58333 9.95396 6.5829 9.70883 6.5701 9.52122C6.55779 9.34072 6.53672 9.27198 6.52307 9.23904C6.44272 9.04506 6.2886 8.89094 6.09462 8.81059C6.06168 8.79694 5.99294 8.77587 5.81244 8.76356ZM16.2201 8.75033H8.02987C8.10412 8.9701 8.13464 9.19179 8.14977 9.41344C8.16669 9.66144 8.16668 9.96107 8.16667 10.3083L8.16667 15.0837C8.16667 15.8524 8.16835 16.3494 8.21758 16.7155C8.26374 17.0589 8.33828 17.1665 8.39854 17.2268C8.45881 17.2871 8.56643 17.3616 8.90981 17.4078C9.27596 17.457 9.7729 17.4587 10.5417 17.4587H13.7083C14.4771 17.4587 14.974 17.457 15.3402 17.4078C15.6836 17.3616 15.7912 17.2871 15.8515 17.2268C15.9117 17.1665 15.9863 17.0589 16.0324 16.7155C16.0817 16.3494 16.0833 15.8524 16.0833 15.0837V10.3083C16.0833 9.96107 16.0833 9.66144 16.1002 9.41344C16.1154 9.19179 16.1459 8.9701 16.2201 8.75033Z" fill="#292929"/>
<path id="Ellipse 45 (Stroke)" fill-rule="evenodd" clip-rule="evenodd" d="M13.238 4.09597C12.9024 4.03159 12.5123 4 12.125 4C11.7377 4 11.3476 4.03159 11.012 4.09597C10.8442 4.12816 10.6799 4.17044 10.5311 4.22612C10.3959 4.2767 10.2115 4.36067 10.0555 4.50621C9.73585 4.80448 9.71849 5.30543 10.0168 5.62512C10.2982 5.92679 10.7602 5.95925 11.08 5.71133C11.0818 5.71062 11.0838 5.70986 11.0859 5.70905C11.1282 5.69325 11.2015 5.67181 11.3103 5.65095C11.5277 5.60925 11.8152 5.58333 12.125 5.58333C12.4348 5.58333 12.7223 5.60925 12.9397 5.65095C13.0484 5.67181 13.1218 5.69325 13.1641 5.70905C13.1662 5.70986 13.1682 5.71062 13.17 5.71133C13.4898 5.95925 13.9518 5.92679 14.2332 5.62512C14.5315 5.30543 14.5141 4.80448 14.1944 4.50621C14.0385 4.36067 13.8541 4.2767 13.7189 4.22612C13.5701 4.17044 13.4058 4.12816 13.238 4.09597Z" fill="#292929"/>
</g>
</svg>
